<?xml version="1.0" standalone="no"?>
<!DOCTYPE svg PUBLIC "-//W3C//DTD SVG 20010904//EN"
 "http://www.w3.org/TR/2001/REC-SVG-20010904/DTD/svg10.dtd">
<svg version="1.0" xmlns="http://www.w3.org/2000/svg"
 width="1196.000000pt" height="1196.000000pt" viewBox="0 0 1196.000000 1196.000000"
 preserveAspectRatio="xMidYMid meet">
<metadata>
Created by potrace 1.14, written by Peter Selinger 2001-2017
</metadata>
<g transform="translate(0.000000,1196.000000) scale(0.100000,-0.100000)"
fill="#000000" stroke="none">
<path d="M2140 8768 c-14 -7 -35 -33 -47 -58 -31 -60 -30 -167 2 -426 36 -292
51 -426 84 -749 31 -295 131 -1310 131 -1325 0 -5 -16 -4 -36 1 -23 7 -71 7
-144 -1 -120 -12 -166 -24 -179 -49 -10 -19 9 -83 32 -109 33 -36 25 -42 -133
-93 -277 -90 -445 -165 -473 -210 -13 -20 -3 -59 23 -92 12 -15 100 -84 197
-154 338 -245 545 -488 686 -808 99 -224 147 -428 178 -767 11 -123 27 -254
35 -293 26 -128 76 -196 147 -198 46 -1 71 22 87 79 15 51 10 108 -25 334 -45
288 -64 514 -115 1410 -12 201 -25 410 -29 465 -4 55 -7 101 -5 103 2 3 234
-170 458 -343 71 -55 349 -283 617 -507 875 -730 1083 -878 1314 -939 110 -29
269 -32 309 -5 28 18 28 18 10 36 -11 10 -91 48 -179 83 -397 160 -744 416
-1690 1246 -254 223 -559 475 -722 596 -29 22 -53 42 -53 45 0 3 39 15 88 28
1201 310 1822 487 2072 590 183 75 300 149 300 191 0 21 -50 51 -85 51 -36 0
-81 -25 -88 -49 -5 -20 -66 -56 -122 -73 -16 -5 -160 -43 -320 -84 -159 -42
-346 -93 -415 -114 -147 -45 -489 -143 -680 -195 -74 -20 -216 -59 -315 -86
-447 -123 -518 -141 -525 -129 -4 7 -11 53 -14 104 -13 162 -55 520 -121 1026
-85 647 -105 824 -112 1006 -8 208 10 258 81 215 17 -11 60 -49 96 -85 35 -37
71 -66 78 -66 24 0 72 41 72 62 0 11 -14 32 -32 46 -17 15 -80 72 -138 127
-156 145 -243 192 -300 163z m200 -2822 c0 -7 16 -182 35 -387 34 -366 65
-742 65 -786 0 -43 -18 -23 -70 75 -159 296 -367 545 -620 739 -105 81 -160
130 -160 143 0 20 135 67 440 155 262 76 310 85 310 61z"/>
<path d="M2340 8440 c0 -19 3 -21 12 -12 9 9 9 15 0 24 -9 9 -12 7 -12 -12z"/>
<path d="M6761 8020 c-72 -11 -139 -38 -151 -60 -16 -29 -12 -70 10 -100 19
-27 46 -49 280 -222 284 -210 385 -332 631 -761 107 -187 151 -249 166 -234
22 23 -61 255 -153 426 -172 318 -327 525 -516 688 -49 42 -88 80 -88 85 0 48
417 33 750 -28 156 -29 392 -87 565 -139 649 -196 1394 -626 1821 -1050 367
-365 503 -691 424 -1012 -97 -390 -506 -817 -1170 -1223 -172 -105 -455 -256
-607 -325 -102 -45 -119 -50 -125 -36 -3 9 -18 194 -33 411 -82 1212 -190
2211 -281 2590 -57 238 -114 262 -150 62 -29 -165 -18 -313 71 -917 90 -612
177 -1277 210 -1605 18 -184 37 -612 27 -622 -13 -11 -267 -86 -355 -103 -107
-22 -133 -16 -154 33 -32 78 -5 202 101 454 54 129 65 175 43 184 -63 24 -199
-151 -307 -393 -73 -163 -101 -266 -91 -337 23 -168 203 -181 613 -46 84 28
152 50 153 50 1 0 5 -40 8 -90 6 -96 19 -135 54 -157 19 -13 24 -12 42 6 27
27 41 83 51 208 4 57 10 106 12 107 1 1 55 24 118 51 164 70 550 267 715 365
778 464 1237 970 1294 1428 29 232 -60 498 -255 761 -75 102 -354 376 -484
477 -547 425 -1344 797 -2083 974 -338 81 -505 102 -832 106 -148 1 -294 -1
-324 -6z"/>
<path d="M7080 7790 c29 -23 41 -25 58 -8 21 21 13 28 -35 28 l-48 0 25 -20z"/>
<path d="M8384 6806 c9 -38 54 -322 67 -431 7 -55 16 -104 21 -110 6 -6 7 -4
4 5 -2 8 -7 52 -10 98 -12 188 -61 462 -83 462 -3 0 -2 -11 1 -24z"/>
<path d="M2532 6715 c0 -16 2 -22 5 -12 2 9 2 23 0 30 -3 6 -5 -1 -5 -18z"/>
<path d="M2541 6657 c0 -10 6 -77 13 -150 8 -73 17 -163 19 -200 3 -37 6 -70
9 -72 2 -2 27 3 56 12 l52 17 -24 25 c-54 56 -84 142 -111 306 -7 44 -13 72
-14 62z"/>
<path d="M10615 6395 c105 -167 183 -376 186 -500 1 -22 5 -51 10 -65 15 -42
0 138 -17 205 -8 33 -26 90 -40 127 -26 70 -113 222 -141 248 -13 12 -12 8 2
-15z"/>
<path d="M8472 6215 c0 -16 2 -22 5 -12 2 9 2 23 0 30 -3 6 -5 -1 -5 -18z"/>
<path d="M2784 6027 l-42 -12 89 -67 88 -68 -29 63 c-17 34 -30 70 -30 80 0
19 -16 20 -76 4z"/>
<path d="M2622 5689 c2 -7 10 -15 17 -17 8 -3 12 1 9 9 -2 7 -10 15 -17 17 -8
3 -12 -1 -9 -9z"/>
<path d="M2671 4930 c-4 -125 50 -752 85 -1000 34 -243 35 -249 45 -225 13 34
10 92 -15 254 -34 216 -35 226 -46 501 -10 245 -26 380 -54 455 -12 33 -15 36
-15 15z"/>
<path d="M6263 4215 c-144 -45 -219 -147 -142 -194 106 -65 277 -7 307 103 26
91 -44 129 -165 91z"/>
<path d="M7994 4035 c-5 -17 -8 -55 -9 -85 l0 -55 44 3 c72 5 73 9 20 92 -47
74 -48 74 -55 45z"/>
</g>
</svg>
